# xmcd
#
# Track frame offsets:
#	150
#	15925
#	27940
#	41430
#	52895
#	65250
#	80325
#	91335
#	104845
#	119647
#	136125
#	151372
#	162817
#	180540
#	194612
#	207695
#	223830
#	240080
#	256220
#	269647
#	284742
#	299317
#	314145
#
# Disc length: 4365 seconds
#
# Revision: 1
# Processed by: cddbd v1.5.2PL0 Copyright (c) Steve Scherf et al.
# Submitted via: audiograbber 1.83.01
#
DISCID=58110b17
DTITLE=Ivan Rebroff - Ivan Rebroff Sing vir Ons
DYEAR=1993
DGENRE=Afrikaans
TTITLE0=Lief Blompies in die Maanskyn
TTITLE1=Huisie in die Berge
TTITLE2=Heimwee
TTITLE3=Afrikaanse Wiegeliedjie
TTITLE4=Ou Karooland
TTITLE5=Boereseun
TTITLE6=O Boereplaas
TTITLE7='n Liedjie van Verlange
TTITLE8=Aandlied van die voëls - Rebroff
TTITLE9=Op my ou Ramkikie
TTITLE10=Gebed van 'n jong meisie
TTITLE11=Vaarwel my eie soetlief
TTITLE12=Ken jy die land
TTITLE13=Sarie Marais
TTITLE14=My mense Tuis
TTITLE15=Danie Lief
TTITLE16=Oktobermaand
TTITLE17=Kom dans Klaredy - Sproetenooi
TTITLE18=Wilde Bergroos
TTITLE19=J's rein soos lente blomme
TTITLE20=My noointjie in die moerby boom
TTITLE21=Stil soos die nag
TTITLE22=Die goeie ou tyd
EXTD=
EXTT0=
EXTT1=
EXTT2=
EXTT3=
EXTT4=
EXTT5=
EXTT6=
EXTT7=
EXTT8=
EXTT9=
EXTT10=
EXTT11=
EXTT12=
EXTT13=
EXTT14=
EXTT15=
EXTT16=
EXTT17=
EXTT18=
EXTT19=
EXTT20=
EXTT21=
EXTT22=
PLAYORDER=
